<?xml version="1.0" encoding="UTF-8"?>
<svg width="38px" height="10px" viewBox="0 0 38 10" version="1.1" xmlns="http://www.w3.org/2000/svg" xmlns:xlink="http://www.w3.org/1999/xlink">
    <!-- Generator: Sketch 41.1 (35376) - http://www.bohemiancoding.com/sketch -->
    <title>TRIBBY</title>
    <desc>Created with Sketch.</desc>
    <defs></defs>
    <g id="Page-1" stroke="none" stroke-width="1" fill="none" fill-rule="evenodd">
        <g id="Artboard" transform="translate(-59.000000, -24.000000)" fill="#2D2D2E">
            <path d="M65.006,24.2 L59.252,24.2 L59.252,25.712 L61.282,25.712 L61.282,34 L62.906,34 L62.906,25.712 L65.006,25.712 L65.006,24.2 Z M70.466,34 L72.118,34 L70.662,29.702 C71.432,29.226 71.894,28.288 71.894,27.084 C71.894,25.334 70.844,24.186 69.262,24.186 L66.238,24.186 L66.238,34 L67.862,34 L67.862,30.066 L69.22,30.066 L70.466,34 Z M67.862,25.698 L69.094,25.698 C69.808,25.698 70.27,26.272 70.27,27.126 C70.27,27.994 69.808,28.582 69.094,28.582 L67.862,28.582 L67.862,25.698 Z M73.63,34 L75.254,34 L75.254,24.2 L73.63,24.2 L73.63,34 Z M81.54,28.932 C82.254,28.498 82.646,27.784 82.646,26.832 C82.646,25.194 81.428,24.2 79.608,24.2 L77.088,24.2 L77.088,34 L79.86,34 C81.568,34 82.744,32.95 82.744,31.256 C82.744,30.234 82.282,29.436 81.54,28.932 Z M78.712,25.698 L79.72,25.698 C80.518,25.698 81.05,26.23 81.05,27.014 C81.05,27.798 80.518,28.288 79.72,28.288 L78.712,28.288 L78.712,25.698 Z M79.734,32.502 L78.712,32.502 L78.712,29.702 L79.734,29.702 C80.56,29.702 81.12,30.262 81.12,31.102 C81.12,31.928 80.574,32.502 79.734,32.502 Z M88.582,28.932 C89.296,28.498 89.688,27.784 89.688,26.832 C89.688,25.194 88.47,24.2 86.65,24.2 L84.13,24.2 L84.13,34 L86.902,34 C88.61,34 89.786,32.95 89.786,31.256 C89.786,30.234 89.324,29.436 88.582,28.932 Z M85.754,25.698 L86.762,25.698 C87.56,25.698 88.092,26.23 88.092,27.014 C88.092,27.798 87.56,28.288 86.762,28.288 L85.754,28.288 L85.754,25.698 Z M86.776,32.502 L85.754,32.502 L85.754,29.702 L86.776,29.702 C87.602,29.702 88.162,30.262 88.162,31.102 C88.162,31.928 87.616,32.502 86.776,32.502 Z M92.67,33.986 L94.28,33.986 L94.28,29.954 L96.492,24.2 L94.784,24.2 L93.482,28.246 L92.152,24.2 L90.458,24.2 L92.67,29.954 L92.67,33.986 Z" id="TRIBBY"></path>
        </g>
    </g>
</svg>